<svg width="782" height="1008" viewBox="0 0 782 1008" fill="none" xmlns="http://www.w3.org/2000/svg">
<path d="M701 2.00272e-05C735.333 34.6667 782 97.5 782 158C782 369 628 401.919 628 459C628 491 699.686 494.539 687.5 632C675 773 577.5 886.5 570 944.5C562.536 1002.22 536.707 993.064 477.649 1005.75C477.269 1005.84 476.886 1005.92 476.5 1006C476.884 1005.92 477.267 1005.83 477.649 1005.75C523.519 995.059 523.505 902.468 523.5 868.531L523.5 867.5C523.5 825.5 593.5 760.5 609 686.5C632.445 574.569 570 570.5 609 443.5C648 316.5 679.517 345.256 712.5 300C734 270.5 724 202.258 724 174C724 143.5 674 2.00272e-05 674 2.00272e-05L689.5 0L701 2.00272e-05Z" fill="#FEDF92"/>
<path fill-rule="evenodd" clip-rule="evenodd" d="M0 1007V0H663.482C712.514 26.1646 766.635 63.5512 762 180.5C758.046 280.266 699.202 332.384 647.871 377.848C626.912 396.411 607.206 413.865 593 433C567.903 466.804 584.659 499.532 602.673 534.718C619.83 568.231 638.129 603.973 622.5 645C611.994 672.578 603.459 686.078 596.895 696.46C585.965 713.748 580.5 722.392 580.5 773C580.5 807.465 561.547 847.149 543.797 884.315L543.796 884.318C537.598 897.295 531.547 909.966 526.5 922C507.659 966.93 436.982 992.45 350.455 1007H0Z" fill="#86CCF3"/>
<path opacity="0.6" fill-rule="evenodd" clip-rule="evenodd" d="M0 0V1007C17.8312 1006.72 36.5197 1006.88 55.6046 1007.04C172.092 1008.03 303.342 1009.15 344.5 911C347.589 903.633 351.005 895.777 354.566 887.586C373.482 844.077 396.5 791.133 396.5 752C396.5 699.752 416.263 665.187 437.809 627.506C449.665 606.77 462.061 585.09 472 559C496.645 494.306 498.018 466.274 499.502 435.957C499.947 426.861 500.403 417.559 501.5 407C505.04 372.926 517.099 353.44 531.177 330.692C548.912 302.036 569.851 268.202 581 193.5C592.897 113.793 577.667 47.1179 552.148 0H0Z" fill="#55AAE8"/>
<path fill-rule="evenodd" clip-rule="evenodd" d="M652.61 0C680.129 50.9599 702 147.044 702 174C702 179.895 702.435 187.529 702.928 196.189C704.801 229.043 707.515 276.654 690.5 300C679.665 314.866 668.719 321.746 657.521 328.784C634.63 343.171 610.688 358.219 584.5 443.5C563.499 511.887 572.638 544.629 581.887 577.761C589.813 606.158 597.82 634.842 587 686.5C578.931 725.021 556.094 761.103 536.051 792.771C517.591 821.939 501.5 847.363 501.5 867.5C501.5 900.82 471.5 980 424 989.5C386.537 996.992 350.645 1002.68 316.65 1007H482.862C530.317 992.223 565.066 965.753 571.5 916C574.332 894.093 586.653 868.333 601.563 837.159C626.127 785.799 657.721 719.742 665.5 632C673.871 537.565 645.727 499.021 627.287 473.768C618.886 462.263 612.5 453.516 612.5 443.5C612.5 423.969 631.29 408.321 656.011 387.733C703.542 348.149 773 290.305 773 151.5C773 99.8217 730.559 38.4149 696.784 0H652.61Z" fill="#D1F1FB"/>
<path opacity="0.7" d="M553.489 867.882C547.056 891.888 535.355 909.611 527.353 907.467C519.351 905.322 518.079 884.124 524.511 860.118C530.943 836.112 552.498 801.856 560.5 804C568.502 806.144 559.921 843.876 553.489 867.882Z" fill="#86D4F3"/>
<path opacity="0.8" d="M643 544.982C646.667 569.563 636.803 593.005 630.248 593.982C623.693 594.96 598.415 569.563 594.748 544.982C591.081 520.402 606.693 496.96 613.247 495.983C619.802 495.005 639.333 520.402 643 544.982Z" fill="#86D4F3"/>
<ellipse cx="700.5" cy="48.5" rx="5.5" ry="11.5" transform="rotate(-20.6326 700.5 48.5)" fill="#86D4F3"/>
<ellipse cx="716.225" cy="73.8471" rx="3.72161" ry="7.78154" transform="rotate(-20.6326 716.225 73.8471)" fill="#86D4F3"/>
<path opacity="0.8" d="M756 156C756 180.577 743.668 239.5 731.518 239.5C719.368 239.5 722.018 194.077 722.018 169.5C722.018 144.923 703.018 107 722.018 107C734.168 107 756 131.423 756 156Z" fill="#86D4F3"/>
<path d="M626 614C626 621.732 630.142 638 626 638C621.858 638 611 621.732 611 614C611 606.268 614.358 600 618.5 600C622.642 600 626 606.268 626 614Z" fill="#86D4F3"/>
<path d="M533.5 388.575C528.331 412.037 523.885 446.407 517.5 445C511.115 443.593 508.311 412.037 513.48 388.575C518.648 365.113 539.096 328.593 545.48 330C551.865 331.407 538.669 365.113 533.5 388.575Z" fill="#69C0EC"/>
<path d="M515.015 468.5C515.015 474.023 510.157 480.5 508.5 480.5C506.843 480.5 509.015 474.023 509.015 468.5C509.015 462.977 509.843 456.5 511.5 456.5C513.157 456.5 515.015 462.977 515.015 468.5Z" fill="#69C0EC"/>
<path d="M436.617 715.629C432.272 743.459 413.23 792.895 407.5 792C401.77 791.105 411.524 740.219 415.869 712.389C420.214 684.56 428.382 662.725 434.111 663.62C439.841 664.515 440.963 687.8 436.617 715.629Z" fill="#69C0EC"/>
<path opacity="0.5" fill-rule="evenodd" clip-rule="evenodd" d="M0 960.299V0H176.9C179.292 10.1788 181.981 20.3806 184.784 31.0157C199.616 87.2875 217.645 155.69 211.909 297C204.33 483.707 136.836 761.592 109.018 818.5C69.1552 900.047 37.2346 940.185 0 960.299Z" fill="#3F89DF"/>
</svg>
